<mxfile host="Electron" agent="Mozilla/5.0 (Windows NT 10.0; Win64; x64) AppleWebKit/537.36 (KHTML, like Gecko) draw.io/25.0.2 Chrome/128.0.6613.186 Electron/32.2.5 Safari/537.36" version="25.0.2">
  <diagram name="Страница — 1" id="GXMrNB5Edi-ewXPr0YZj">
    <mxGraphModel dx="1611" dy="1080" grid="1" gridSize="10" guides="1" tooltips="1" connect="1" arrows="1" fold="1" page="1" pageScale="1" pageWidth="827" pageHeight="1169" math="0" shadow="0">
      <root>
        <mxCell id="0" />
        <mxCell id="1" parent="0" />
        <mxCell id="BFia_SQ2gyr02EMTNyL8-7" style="edgeStyle=orthogonalEdgeStyle;rounded=0;orthogonalLoop=1;jettySize=auto;html=1;exitX=0.5;exitY=1;exitDx=0;exitDy=0;entryX=0.5;entryY=0;entryDx=0;entryDy=0;strokeWidth=4;fontColor=#CCCCCC;" parent="1" source="xJIM_QWzh1oK6-e6Z9la-1" target="xJIM_QWzh1oK6-e6Z9la-2" edge="1">
          <mxGeometry relative="1" as="geometry" />
        </mxCell>
        <mxCell id="xJIM_QWzh1oK6-e6Z9la-1" value="&lt;font style=&quot;font-size: 35px;&quot;&gt;Инициализация&lt;/font&gt;" style="rounded=0;whiteSpace=wrap;html=1;container=0;fontColor=#CCCCCC;strokeColor=#CCCCCC;fillColor=#2E2E2E;" parent="1" vertex="1">
          <mxGeometry x="516.44" y="270" width="600" height="50" as="geometry" />
        </mxCell>
        <mxCell id="BFia_SQ2gyr02EMTNyL8-6" style="edgeStyle=orthogonalEdgeStyle;rounded=0;orthogonalLoop=1;jettySize=auto;html=1;exitX=0.5;exitY=1;exitDx=0;exitDy=0;entryX=0.5;entryY=0;entryDx=0;entryDy=0;strokeWidth=4;fontColor=#CCCCCC;" parent="1" source="xJIM_QWzh1oK6-e6Z9la-2" target="xJIM_QWzh1oK6-e6Z9la-5" edge="1">
          <mxGeometry relative="1" as="geometry" />
        </mxCell>
        <mxCell id="xJIM_QWzh1oK6-e6Z9la-2" value="&lt;font style=&quot;font-size: 35px;&quot;&gt;Сбор данных с датчиков&lt;/font&gt;" style="rounded=0;whiteSpace=wrap;html=1;container=0;fontColor=#CCCCCC;strokeColor=#CCCCCC;fillColor=#2E2E2E;" parent="1" vertex="1">
          <mxGeometry x="516.24" y="350" width="600" height="50" as="geometry" />
        </mxCell>
        <mxCell id="BFia_SQ2gyr02EMTNyL8-5" style="edgeStyle=orthogonalEdgeStyle;rounded=0;orthogonalLoop=1;jettySize=auto;html=1;exitX=0.5;exitY=1;exitDx=0;exitDy=0;entryX=0.5;entryY=0;entryDx=0;entryDy=0;strokeWidth=4;fontColor=#CCCCCC;" parent="1" source="xJIM_QWzh1oK6-e6Z9la-5" target="xJIM_QWzh1oK6-e6Z9la-7" edge="1">
          <mxGeometry relative="1" as="geometry" />
        </mxCell>
        <mxCell id="xJIM_QWzh1oK6-e6Z9la-5" value="" style="rounded=0;whiteSpace=wrap;html=1;container=0;fontColor=#CCCCCC;strokeColor=#CCCCCC;fillColor=#2E2E2E;" parent="1" vertex="1">
          <mxGeometry x="69.9" y="430.01" width="1492.6829268292684" height="321.5789473684211" as="geometry" />
        </mxCell>
        <mxCell id="BFia_SQ2gyr02EMTNyL8-4" style="edgeStyle=orthogonalEdgeStyle;rounded=0;orthogonalLoop=1;jettySize=auto;html=1;exitX=0.5;exitY=1;exitDx=0;exitDy=0;entryX=0.5;entryY=0;entryDx=0;entryDy=0;strokeWidth=4;fontColor=#CCCCCC;" parent="1" source="xJIM_QWzh1oK6-e6Z9la-7" target="xJIM_QWzh1oK6-e6Z9la-9" edge="1">
          <mxGeometry relative="1" as="geometry" />
        </mxCell>
        <mxCell id="xJIM_QWzh1oK6-e6Z9la-7" value="&lt;font style=&quot;font-size: 30px;&quot;&gt;Передача основных данных на землю&lt;/font&gt;" style="rounded=0;whiteSpace=wrap;html=1;container=0;fontColor=#CCCCCC;strokeColor=#CCCCCC;fillColor=#2E2E2E;" parent="1" vertex="1">
          <mxGeometry x="517.8741463414633" y="779.9957894736843" width="600" height="50" as="geometry" />
        </mxCell>
        <mxCell id="BFia_SQ2gyr02EMTNyL8-3" style="edgeStyle=orthogonalEdgeStyle;rounded=0;orthogonalLoop=1;jettySize=auto;html=1;exitX=1;exitY=0.5;exitDx=0;exitDy=0;entryX=1;entryY=0.5;entryDx=0;entryDy=0;strokeWidth=4;fontColor=#CCCCCC;strokeColor=#CCCCCC;" parent="1" source="xJIM_QWzh1oK6-e6Z9la-9" target="xJIM_QWzh1oK6-e6Z9la-2" edge="1">
          <mxGeometry relative="1" as="geometry">
            <Array as="points">
              <mxPoint x="1590" y="885" />
              <mxPoint x="1590" y="375" />
            </Array>
          </mxGeometry>
        </mxCell>
        <mxCell id="xJIM_QWzh1oK6-e6Z9la-9" value="&lt;font style=&quot;font-size: 30px;&quot;&gt;Запись полученных данных на SD&lt;/font&gt;" style="rounded=0;whiteSpace=wrap;html=1;container=0;fontColor=#CCCCCC;strokeColor=#CCCCCC;fillColor=#2E2E2E;" parent="1" vertex="1">
          <mxGeometry x="517.8741463414633" y="859.9963157894738" width="600" height="50" as="geometry" />
        </mxCell>
        <mxCell id="BFia_SQ2gyr02EMTNyL8-10" style="edgeStyle=orthogonalEdgeStyle;rounded=0;orthogonalLoop=1;jettySize=auto;html=1;exitX=1;exitY=0.5;exitDx=0;exitDy=0;entryX=0;entryY=0.5;entryDx=0;entryDy=0;strokeWidth=4;fontColor=#CCCCCC;strokeColor=#CCCCCC;" parent="1" source="xJIM_QWzh1oK6-e6Z9la-15" target="xJIM_QWzh1oK6-e6Z9la-17" edge="1">
          <mxGeometry relative="1" as="geometry" />
        </mxCell>
        <mxCell id="xJIM_QWzh1oK6-e6Z9la-15" value="&lt;div&gt;&lt;span style=&quot;font-weight: 700;&quot;&gt;Перед укладкой&lt;/span&gt;&lt;br&gt;&lt;/div&gt;" style="whiteSpace=wrap;html=1;fillColor=#0F4712;strokeColor=#092E0B;container=0;verticalAlign=top;fontSize=28;fontColor=#CCCCCC;strokeWidth=2;" parent="1" vertex="1">
          <mxGeometry x="81.23951219512193" y="481.1991228070176" width="180" height="220" as="geometry" />
        </mxCell>
        <mxCell id="BFia_SQ2gyr02EMTNyL8-11" style="edgeStyle=orthogonalEdgeStyle;rounded=0;orthogonalLoop=1;jettySize=auto;html=1;exitX=1;exitY=0.5;exitDx=0;exitDy=0;entryX=0;entryY=0.5;entryDx=0;entryDy=0;strokeWidth=4;fontColor=#CCCCCC;strokeColor=#CCCCCC;" parent="1" source="xJIM_QWzh1oK6-e6Z9la-17" target="xJIM_QWzh1oK6-e6Z9la-18" edge="1">
          <mxGeometry relative="1" as="geometry" />
        </mxCell>
        <mxCell id="xJIM_QWzh1oK6-e6Z9la-17" value="&lt;div&gt;&lt;span style=&quot;font-weight: 700; background-color: initial;&quot;&gt;В ракете&lt;/span&gt;&lt;br&gt;&lt;/div&gt;" style="whiteSpace=wrap;html=1;fillColor=#0F4712;strokeColor=#092E0B;container=0;verticalAlign=top;fontSize=28;fontColor=#CCCCCC;strokeWidth=2;" parent="1" vertex="1">
          <mxGeometry x="412.24" y="481.19999999999993" width="180" height="220" as="geometry" />
        </mxCell>
        <mxCell id="BFia_SQ2gyr02EMTNyL8-12" style="edgeStyle=orthogonalEdgeStyle;rounded=0;orthogonalLoop=1;jettySize=auto;html=1;exitX=1;exitY=0.5;exitDx=0;exitDy=0;entryX=0;entryY=0.5;entryDx=0;entryDy=0;strokeWidth=4;fontColor=#CCCCCC;strokeColor=#CCCCCC;" parent="1" source="xJIM_QWzh1oK6-e6Z9la-18" target="xJIM_QWzh1oK6-e6Z9la-19" edge="1">
          <mxGeometry relative="1" as="geometry" />
        </mxCell>
        <mxCell id="xJIM_QWzh1oK6-e6Z9la-18" value="&lt;span style=&quot;font-weight: 700;&quot;&gt;Спуск&lt;/span&gt;" style="whiteSpace=wrap;html=1;fillColor=#0F4712;strokeColor=#092E0B;container=0;verticalAlign=top;fontSize=28;fontColor=#CCCCCC;strokeWidth=2;" parent="1" vertex="1">
          <mxGeometry x="736.24" y="480.4" width="180" height="220" as="geometry" />
        </mxCell>
        <mxCell id="BFia_SQ2gyr02EMTNyL8-13" style="edgeStyle=orthogonalEdgeStyle;rounded=0;orthogonalLoop=1;jettySize=auto;html=1;exitX=1;exitY=0.5;exitDx=0;exitDy=0;entryX=0;entryY=0.5;entryDx=0;entryDy=0;strokeWidth=4;fontColor=#CCCCCC;strokeColor=#CCCCCC;" parent="1" source="xJIM_QWzh1oK6-e6Z9la-19" target="xJIM_QWzh1oK6-e6Z9la-20" edge="1">
          <mxGeometry relative="1" as="geometry" />
        </mxCell>
        <mxCell id="xJIM_QWzh1oK6-e6Z9la-19" value="&lt;span style=&quot;font-weight: 700;&quot;&gt;Сброс&lt;/span&gt;" style="whiteSpace=wrap;html=1;fillColor=#0F4712;strokeColor=#092E0B;container=0;verticalAlign=top;fontSize=28;fontColor=#CCCCCC;strokeWidth=2;" parent="1" vertex="1">
          <mxGeometry x="1062.240243902439" y="481.20105263157893" width="180" height="220" as="geometry" />
        </mxCell>
        <mxCell id="xJIM_QWzh1oK6-e6Z9la-20" value="&lt;span style=&quot;font-weight: 700;&quot;&gt;Завершение&lt;/span&gt;" style="whiteSpace=wrap;html=1;fillColor=#0F4712;strokeColor=#092E0B;container=0;verticalAlign=top;fontSize=28;fontColor=#CCCCCC;strokeWidth=2;" parent="1" vertex="1">
          <mxGeometry x="1371.239512195122" y="481.20105263157893" width="180" height="220" as="geometry" />
        </mxCell>
        <mxCell id="xJIM_QWzh1oK6-e6Z9la-22" value="&lt;span style=&quot;font-weight: 700;&quot;&gt;Ожидание подтверждения размещения внутри ракеты&lt;/span&gt;" style="whiteSpace=wrap;html=1;fillColor=#008a00;fontColor=#CCCCCC;strokeColor=#005700;container=0;fontSize=20;" parent="1" vertex="1">
          <mxGeometry x="92.24" y="568.15" width="160" height="120" as="geometry" />
        </mxCell>
        <mxCell id="xJIM_QWzh1oK6-e6Z9la-23" value="&lt;span style=&quot;font-weight: 700;&quot;&gt;Влючение пьезодинамика&lt;/span&gt;" style="whiteSpace=wrap;html=1;fillColor=#008a00;strokeColor=#005700;fontColor=#CCCCCC;container=0;fontSize=20;" parent="1" vertex="1">
          <mxGeometry x="1382.2431707317073" y="568.1505263157895" width="160" height="120" as="geometry" />
        </mxCell>
        <mxCell id="xJIM_QWzh1oK6-e6Z9la-24" value="&lt;span style=&quot;font-weight: 700;&quot;&gt;Срабатывание системы сборса&lt;/span&gt;" style="whiteSpace=wrap;html=1;fillColor=#008a00;strokeColor=#005700;fontColor=#CCCCCC;container=0;fontSize=20;" parent="1" vertex="1">
          <mxGeometry x="1073.237024390244" y="568.1505263157895" width="160" height="120" as="geometry" />
        </mxCell>
        <mxCell id="xJIM_QWzh1oK6-e6Z9la-25" value="&lt;span style=&quot;font-weight: 700;&quot;&gt;Ожидание достижения высоты 100м&lt;/span&gt;" style="whiteSpace=wrap;html=1;fillColor=#008a00;fontColor=#CCCCCC;strokeColor=#005700;container=0;fontSize=20;" parent="1" vertex="1">
          <mxGeometry x="747.2404390243903" y="567.3505263157896" width="160" height="120" as="geometry" />
        </mxCell>
        <mxCell id="xJIM_QWzh1oK6-e6Z9la-26" value="&lt;span style=&quot;font-weight: 700;&quot;&gt;Проверка изменений уровня освещенности&lt;/span&gt;" style="whiteSpace=wrap;html=1;fillColor=#008a00;fontColor=#CCCCCC;strokeColor=#005700;container=0;fontSize=20;" parent="1" vertex="1">
          <mxGeometry x="423.23702439024396" y="568.1505263157895" width="160" height="120" as="geometry" />
        </mxCell>
        <mxCell id="xJIM_QWzh1oK6-e6Z9la-39" value="Обнаружено подтверждение нахождения под обтекателем" style="text;align=center;verticalAlign=middle;rounded=0;strokeWidth=0;perimeterSpacing=3;fontStyle=1;whiteSpace=wrap;fontSize=18;container=0;fontColor=#CCCCCC;" parent="1" vertex="1">
          <mxGeometry x="279.24" y="474.99999999999994" width="120" height="103.55" as="geometry" />
        </mxCell>
        <mxCell id="xJIM_QWzh1oK6-e6Z9la-40" value="Замечено резкое изменение освещенности" style="text;align=center;verticalAlign=middle;rounded=0;strokeWidth=0;perimeterSpacing=3;fontStyle=1;whiteSpace=wrap;fontSize=18;container=0;fontColor=#CCCCCC;" parent="1" vertex="1">
          <mxGeometry x="612.24" y="474.99999999999994" width="102.99" height="110" as="geometry" />
        </mxCell>
        <mxCell id="xJIM_QWzh1oK6-e6Z9la-41" value="Аппарат достиг высоты 100 метров над поверхностью" style="text;align=center;verticalAlign=middle;rounded=0;strokeWidth=0;perimeterSpacing=3;fontStyle=1;whiteSpace=wrap;fontSize=18;container=0;fontColor=#CCCCCC;" parent="1" vertex="1">
          <mxGeometry x="952.2351219512194" y="497.0573684210527" width="76.12682926829268" height="36.49122807017544" as="geometry" />
        </mxCell>
        <mxCell id="xJIM_QWzh1oK6-e6Z9la-42" value="Операция по сбросу груза завершена" style="text;align=center;verticalAlign=middle;rounded=0;strokeWidth=0;perimeterSpacing=3;fontStyle=1;whiteSpace=wrap;fontSize=18;container=0;fontColor=#CCCCCC;" parent="1" vertex="1">
          <mxGeometry x="1240.5" y="487.94" width="122.62" height="90.61" as="geometry" />
        </mxCell>
      </root>
    </mxGraphModel>
  </diagram>
</mxfile>
